<svg xmlns="http://www.w3.org/2000/svg" viewBox="0 0 400 360" fill="none">
  <defs>
    <linearGradient id="g" x1="0" y1="0" x2="0" y2="1">
      <stop offset="0" stop-color="#1f1c17"/>
      <stop offset="1" stop-color="#34302a"/>
    </linearGradient>
  </defs>
  <rect x="40" y="30" width="320" height="300" rx="22" fill="url(#g)"/>
  <!-- barber pole -->
  <rect x="186" y="70" width="28" height="200" rx="14" fill="#efece7"/>
  <g clip-path="url(#pole)">
    <rect x="186" y="70" width="28" height="200" fill="#efece7"/>
    <g fill="#c98a2b">
      <path d="M186 90 l28 -20 v18 l-28 20 z"/>
      <path d="M186 130 l28 -20 v18 l-28 20 z"/>
      <path d="M186 170 l28 -20 v18 l-28 20 z"/>
      <path d="M186 210 l28 -20 v18 l-28 20 z"/>
      <path d="M186 250 l28 -20 v18 l-28 20 z"/>
    </g>
  </g>
  <clipPath id="pole"><rect x="186" y="70" width="28" height="200" rx="14"/></clipPath>
  <rect x="180" y="60" width="40" height="16" rx="6" fill="#c98a2b"/>
  <rect x="180" y="264" width="40" height="16" rx="6" fill="#c98a2b"/>
  <!-- scissors accent -->
  <g stroke="#c98a2b" stroke-width="6" stroke-linecap="round">
    <path d="M96 110 L150 160"/>
    <path d="M96 160 L150 110"/>
  </g>
  <circle cx="96" cy="110" r="9" fill="none" stroke="#c98a2b" stroke-width="5"/>
  <circle cx="96" cy="160" r="9" fill="none" stroke="#c98a2b" stroke-width="5"/>
  <!-- razor -->
  <g stroke="#efece7" stroke-width="6" stroke-linecap="round">
    <path d="M250 200 L300 250"/>
  </g>
  <rect x="296" y="246" width="34" height="12" rx="6" transform="rotate(45 296 246)" fill="#c98a2b"/>
</svg>
